<svg xmlns="http://www.w3.org/2000/svg" xmlns:xlink="http://www.w3.org/1999/xlink" id="Capa_1" x="0px" y="0px" viewBox="0 0 262.15 55.1" style="enable-background:new 0 0 262.15 55.1;" xml:space="preserve">
<style type="text/css">
	.st0{fill:#00205C;}
	.st1{fill-rule:evenodd;clip-rule:evenodd;fill:#00205C;}
	.st2{fill:#FFFFFF;}
	.st3{fill:#1D4F7C;}
	.st4{fill:#58595B;}
	.st5{fill-rule:evenodd;clip-rule:evenodd;fill:#FFFFFF;}
	.st6{fill:#DB3832;}
	.st7{fill:#FFC943;}
	.st8{fill:#43567C;}
	.st9{fill:#6BB3D9;}
	.st10{fill:#BAC2D3;}
	.st11{fill:#2F3A5A;}
	.st12{fill:#DBE2EB;}
	.st13{fill:#EF5361;}
	.st14{fill:#8CCFB5;}
	.st15{fill:#EAECF0;}
	.st16{fill:#D3D7DE;}
	.st17{fill:#DF705D;}
	.st18{fill:#676E84;}
	.st19{fill:#4A4E67;}
	.st20{fill:#759CE7;}
	.st21{fill:#5881CC;}
	.st22{fill:#E5A747;}
	.st23{fill:#2B4D66;}
	.st24{fill:#E4F6FF;}
	.st25{fill:#D3EFFB;}
	.st26{fill:#DD636E;}
	.st27{fill:#B1E4F9;}
	.st28{fill:#3F6D8E;}
	.st29{fill:#365E7D;}
	.st30{fill:#5C90B9;}
	.st31{fill:#4A80AA;}
	.st32{fill:#FFAA5B;}
	.st33{fill:#B3E59F;}
	.st34{fill:#DA4A54;}
	.st35{fill:#FF9838;}
	.st36{fill:#95D6A4;}
	.st37{clip-path:url(#SVGID_2_);fill:#647892;}
	.st38{clip-path:url(#SVGID_2_);fill:#4D6682;}
	.st39{clip-path:url(#SVGID_2_);fill:#3997EE;}
	.st40{clip-path:url(#SVGID_2_);fill:#1E88D8;}
	.st41{fill:#EDB87E;}
	.st42{fill:#E4A970;}
	.st43{fill:#1E88D8;}
	.st44{fill:#FAC149;}
	.st45{fill:#F8A748;}
	.st46{fill:#F4C48B;}
	.st47{fill:#EFEFEF;}
	.st48{fill:#3997EE;}
	.st49{fill:#F38D1A;}
	.st50{fill:#D1D3D4;}
	.st51{fill:none;stroke:#00205C;stroke-width:0.5;stroke-miterlimit:10;}
	.st52{fill:none;stroke:#00205C;stroke-miterlimit:10;}
</style>
<g>
	<g>
		<path class="st0" d="M5.93,50l-0.48,0.37c-0.26-0.34-0.58-0.6-0.95-0.78c-0.37-0.18-0.78-0.27-1.22-0.27    c-0.48,0-0.93,0.12-1.34,0.35c-0.41,0.23-0.73,0.55-0.96,0.94C0.75,51,0.64,51.44,0.64,51.93c0,0.74,0.25,1.36,0.76,1.85    c0.51,0.5,1.15,0.74,1.92,0.74c0.85,0,1.56-0.33,2.13-1l0.48,0.36c-0.3,0.39-0.68,0.68-1.13,0.89c-0.45,0.21-0.96,0.32-1.51,0.32    c-1.06,0-1.9-0.35-2.51-1.06C0.26,53.44,0,52.72,0,51.87c0-0.89,0.31-1.64,0.93-2.24c0.62-0.61,1.4-0.91,2.34-0.91    c0.57,0,1.08,0.11,1.53,0.34C5.26,49.28,5.64,49.6,5.93,50z"></path>
		<path class="st0" d="M11.69,48.88h1.21c0.67,0,1.13,0.03,1.37,0.08c0.36,0.08,0.65,0.26,0.88,0.53c0.23,0.27,0.34,0.6,0.34,1    c0,0.33-0.08,0.62-0.23,0.87c-0.16,0.25-0.38,0.44-0.67,0.57c-0.29,0.13-0.69,0.19-1.2,0.2l2.18,2.82h-0.75l-2.18-2.82H12.3v2.82    h-0.61V48.88z M12.3,49.47v2.06l1.04,0.01c0.4,0,0.7-0.04,0.9-0.12c0.19-0.08,0.34-0.2,0.45-0.37c0.11-0.17,0.16-0.36,0.16-0.57    c0-0.2-0.06-0.39-0.16-0.56c-0.11-0.17-0.25-0.29-0.43-0.36c-0.18-0.07-0.48-0.11-0.89-0.11H12.3z"></path>
		<path class="st0" d="M21.3,48.88h3.47v0.59h-2.87v1.9h2.84v0.59h-2.84v2.38h2.84v0.59H21.3V48.88z M23.35,47.13h0.89l-1.22,1.27    h-0.57L23.35,47.13z"></path>
		<path class="st0" d="M30.34,54.94v-6.07h1.26c0.91,0,1.56,0.07,1.97,0.22c0.59,0.21,1.05,0.56,1.38,1.07    c0.33,0.51,0.5,1.12,0.5,1.82c0,0.61-0.13,1.14-0.39,1.6c-0.26,0.46-0.6,0.8-1.02,1.02c-0.42,0.22-1.01,0.33-1.76,0.33H30.34z     M30.92,54.37h0.7c0.84,0,1.42-0.05,1.74-0.16c0.46-0.15,0.81-0.42,1.08-0.8c0.26-0.39,0.39-0.86,0.39-1.42    c0-0.59-0.14-1.09-0.42-1.5c-0.28-0.41-0.68-0.7-1.18-0.85c-0.38-0.12-1-0.17-1.88-0.17h-0.43V54.37z"></path>
		<path class="st0" d="M41.05,48.88h0.61v6.07h-0.61V48.88z"></path>
		<path class="st0" d="M46.96,49.47v-0.59h3.32v0.59h-1.35v5.47h-0.62v-5.47H46.96z"></path>
		<path class="st0" d="M58.56,48.72c0.92,0,1.69,0.31,2.31,0.92c0.62,0.61,0.93,1.37,0.93,2.26c0,0.89-0.31,1.64-0.93,2.26    c-0.62,0.62-1.37,0.93-2.26,0.93c-0.9,0-1.66-0.31-2.28-0.92c-0.62-0.62-0.93-1.36-0.93-2.23c0-0.58,0.14-1.12,0.42-1.62    c0.28-0.5,0.67-0.89,1.15-1.17C57.46,48.86,57.99,48.72,58.56,48.72z M58.58,49.31c-0.45,0-0.87,0.12-1.28,0.35    c-0.4,0.23-0.72,0.55-0.94,0.95c-0.23,0.4-0.34,0.84-0.34,1.32c0,0.72,0.25,1.33,0.75,1.83c0.5,0.5,1.1,0.75,1.81,0.75    c0.47,0,0.91-0.11,1.31-0.34c0.4-0.23,0.71-0.54,0.94-0.94c0.22-0.4,0.34-0.84,0.34-1.32c0-0.48-0.11-0.92-0.34-1.31    c-0.22-0.39-0.54-0.7-0.95-0.93C59.47,49.43,59.04,49.31,58.58,49.31z"></path>
		<path class="st0" d="M74.36,48.88h0.61v2.54h3.09v-2.54h0.61v6.07h-0.61v-2.93h-3.09v2.93h-0.61V48.88z"></path>
		<path class="st0" d="M84.57,48.88h0.61v6.07h-0.61V48.88z"></path>
		<path class="st0" d="M91.07,48.88h1.21c0.69,0,1.16,0.03,1.4,0.09c0.35,0.09,0.63,0.26,0.85,0.53c0.22,0.27,0.33,0.6,0.33,1    c0,0.4-0.11,0.74-0.32,1c-0.21,0.26-0.51,0.44-0.89,0.53c-0.27,0.07-0.79,0.1-1.54,0.1h-0.43v2.82h-0.61V48.88z M91.68,49.47v2.06    l1.03,0.01c0.41,0,0.72-0.04,0.91-0.11c0.19-0.08,0.34-0.2,0.45-0.37s0.16-0.36,0.16-0.57c0-0.2-0.05-0.39-0.16-0.56    c-0.11-0.17-0.25-0.29-0.44-0.36c-0.18-0.07-0.47-0.11-0.88-0.11H91.68z"></path>
		<path class="st0" d="M103.48,48.72c0.92,0,1.69,0.31,2.31,0.92c0.62,0.61,0.93,1.37,0.93,2.26c0,0.89-0.31,1.64-0.93,2.26    c-0.62,0.62-1.37,0.93-2.26,0.93c-0.9,0-1.66-0.31-2.28-0.92c-0.62-0.62-0.93-1.36-0.93-2.23c0-0.58,0.14-1.12,0.42-1.62    c0.28-0.5,0.67-0.89,1.15-1.17C102.38,48.86,102.91,48.72,103.48,48.72z M103.5,49.31c-0.45,0-0.87,0.12-1.28,0.35    c-0.4,0.23-0.71,0.55-0.94,0.95c-0.23,0.4-0.34,0.84-0.34,1.32c0,0.72,0.25,1.33,0.75,1.83c0.5,0.5,1.1,0.75,1.81,0.75    c0.47,0,0.91-0.11,1.31-0.34c0.4-0.23,0.71-0.54,0.94-0.94c0.22-0.4,0.34-0.84,0.34-1.32c0-0.48-0.11-0.92-0.34-1.31    c-0.22-0.39-0.54-0.7-0.95-0.93C104.39,49.43,103.96,49.31,103.5,49.31z"></path>
		<path class="st0" d="M111.84,49.47v-0.59h3.32v0.59h-1.35v5.47h-0.62v-5.47H111.84z"></path>
		<path class="st0" d="M120.56,48.88h3.47v0.59h-2.87v1.9h2.84v0.59h-2.84v2.38h2.84v0.59h-3.45V48.88z"></path>
		<path class="st0" d="M135.24,50l-0.48,0.37c-0.26-0.34-0.58-0.6-0.95-0.78c-0.37-0.18-0.78-0.27-1.22-0.27    c-0.48,0-0.93,0.12-1.34,0.35c-0.41,0.23-0.73,0.55-0.96,0.94c-0.23,0.39-0.34,0.83-0.34,1.32c0,0.74,0.25,1.36,0.76,1.85    c0.51,0.5,1.15,0.74,1.92,0.74c0.85,0,1.56-0.33,2.13-1l0.48,0.36c-0.3,0.39-0.68,0.68-1.13,0.89c-0.45,0.21-0.96,0.32-1.51,0.32    c-1.06,0-1.9-0.35-2.51-1.06c-0.51-0.6-0.77-1.32-0.77-2.16c0-0.89,0.31-1.64,0.93-2.24c0.62-0.61,1.4-0.91,2.34-0.91    c0.57,0,1.08,0.11,1.53,0.34C134.57,49.28,134.95,49.6,135.24,50z"></path>
		<path class="st0" d="M143.45,48.88l2.83,6.07h-0.65l-0.95-2h-2.61l-0.94,2h-0.68l2.86-6.07H143.45z M143.37,50.17l-1.04,2.2h2.07    L143.37,50.17z"></path>
		<path class="st0" d="M151.76,48.88h1.21c0.67,0,1.13,0.03,1.37,0.08c0.36,0.08,0.65,0.26,0.88,0.53c0.23,0.27,0.34,0.6,0.34,1    c0,0.33-0.08,0.62-0.23,0.87c-0.16,0.25-0.38,0.44-0.67,0.57c-0.29,0.13-0.69,0.19-1.2,0.2l2.18,2.82h-0.75l-2.18-2.82h-0.34v2.82    h-0.61V48.88z M152.37,49.47v2.06l1.04,0.01c0.4,0,0.7-0.04,0.9-0.12c0.19-0.08,0.35-0.2,0.45-0.37c0.11-0.17,0.16-0.36,0.16-0.57    c0-0.2-0.06-0.39-0.17-0.56c-0.11-0.17-0.25-0.29-0.43-0.36c-0.18-0.07-0.48-0.11-0.89-0.11H152.37z"></path>
		<path class="st0" d="M161.28,48.88h0.61v6.07h-0.61V48.88z"></path>
		<path class="st0" d="M170.68,48.72c0.92,0,1.69,0.31,2.31,0.92c0.62,0.61,0.93,1.37,0.93,2.26c0,0.89-0.31,1.64-0.93,2.26    c-0.62,0.62-1.37,0.93-2.26,0.93c-0.9,0-1.66-0.31-2.28-0.92c-0.62-0.62-0.93-1.36-0.93-2.23c0-0.58,0.14-1.12,0.42-1.62    c0.28-0.5,0.67-0.89,1.15-1.17C169.59,48.86,170.11,48.72,170.68,48.72z M170.71,49.31c-0.45,0-0.87,0.12-1.28,0.35    c-0.4,0.23-0.72,0.55-0.94,0.95c-0.23,0.4-0.34,0.84-0.34,1.32c0,0.72,0.25,1.33,0.75,1.83c0.5,0.5,1.1,0.75,1.81,0.75    c0.47,0,0.91-0.11,1.31-0.34c0.4-0.23,0.71-0.54,0.94-0.94c0.22-0.4,0.34-0.84,0.34-1.32c0-0.48-0.11-0.92-0.34-1.31    c-0.22-0.39-0.54-0.7-0.95-0.93C171.6,49.43,171.16,49.31,170.71,49.31z"></path>
		<path class="st0" d="M186.5,54.94v-6.07h0.13l4.03,4.65v-4.65h0.6v6.07h-0.14l-4-4.59v4.59H186.5z"></path>
		<path class="st0" d="M199.73,48.88l2.83,6.07h-0.65l-0.95-2h-2.61l-0.94,2h-0.68l2.86-6.07H199.73z M199.66,50.17l-1.04,2.2h2.07    L199.66,50.17z"></path>
		<path class="st0" d="M213.66,50l-0.48,0.37c-0.26-0.34-0.58-0.6-0.95-0.78c-0.37-0.18-0.78-0.27-1.22-0.27    c-0.48,0-0.93,0.12-1.34,0.35c-0.41,0.23-0.73,0.55-0.96,0.94c-0.23,0.39-0.34,0.83-0.34,1.32c0,0.74,0.25,1.36,0.76,1.85    c0.51,0.5,1.15,0.74,1.92,0.74c0.85,0,1.56-0.33,2.13-1l0.48,0.36c-0.3,0.39-0.68,0.68-1.13,0.89c-0.45,0.21-0.96,0.32-1.51,0.32    c-1.06,0-1.9-0.35-2.51-1.06c-0.51-0.6-0.77-1.32-0.77-2.16c0-0.89,0.31-1.64,0.93-2.24c0.62-0.61,1.4-0.91,2.34-0.91    c0.57,0,1.08,0.11,1.53,0.34C213,49.28,213.37,49.6,213.66,50z"></path>
		<path class="st0" d="M219.31,48.88h0.61v6.07h-0.61V48.88z"></path>
		<path class="st0" d="M228.71,48.72c0.92,0,1.69,0.31,2.31,0.92c0.62,0.61,0.93,1.37,0.93,2.26c0,0.89-0.31,1.64-0.93,2.26    c-0.62,0.62-1.37,0.93-2.26,0.93c-0.9,0-1.66-0.31-2.28-0.92c-0.62-0.62-0.93-1.36-0.93-2.23c0-0.58,0.14-1.12,0.42-1.62    c0.28-0.5,0.67-0.89,1.15-1.17C227.61,48.86,228.14,48.72,228.71,48.72z M228.73,49.31c-0.45,0-0.87,0.12-1.28,0.35    c-0.4,0.23-0.72,0.55-0.94,0.95c-0.23,0.4-0.34,0.84-0.34,1.32c0,0.72,0.25,1.33,0.75,1.83c0.5,0.5,1.1,0.75,1.81,0.75    c0.47,0,0.91-0.11,1.31-0.34c0.4-0.23,0.71-0.54,0.94-0.94c0.22-0.4,0.34-0.84,0.34-1.32c0-0.48-0.11-0.92-0.34-1.31    c-0.22-0.39-0.54-0.7-0.95-0.93C229.62,49.43,229.19,49.31,228.73,49.31z"></path>
		<path class="st0" d="M237.67,54.94v-6.07h0.13l4.03,4.65v-4.65h0.6v6.07h-0.14l-4-4.59v4.59H237.67z"></path>
		<path class="st0" d="M250.91,48.88l2.83,6.07h-0.65l-0.95-2h-2.61l-0.94,2h-0.68l2.86-6.07H250.91z M250.83,50.17l-1.04,2.2h2.07    L250.83,50.17z"></path>
		<path class="st0" d="M259.19,48.88h0.61v5.48h2.33v0.59h-2.94V48.88z"></path>
	</g>
	<g>
		<g>
			<path class="st0" d="M198.44,33.31c-1.97,0.96-5.01,1.58-8.05,1.58c-9.16,0-14.51-5.91-14.51-15.2c0-9.9,5.9-15.59,14.79-15.59     c3.15,0,5.79,0.68,7.59,1.57l1.24-4.05c-1.29-0.62-4.33-1.63-9-1.63c-11.75,0-19.8,7.99-19.8,19.86     c0,12.44,7.98,19.19,18.67,19.19c4.61,0,8.27-0.9,10.01-1.8L198.44,33.31z"></path>
			<g>
				<rect x="201.79" y="0.56" class="st0" width="4.95" height="37.93"></rect>
				<polygon class="st0" points="210.14,20.71 225.07,20.71 225.07,38.49 230.02,38.49 230.02,0.56 225.07,0.56 225.07,16.43       210.14,16.43     "></polygon>
				<path class="st0" d="M225.48,17.06l-0.41-2.39c0,0.97-0.79,1.76-1.76,1.76L225.48,17.06z"></path>
				<path class="st0" d="M225.44,20.31l-0.37,2.15c0-0.97-0.79-1.76-1.76-1.76L225.44,20.31z"></path>
			</g>
			<g>
				<path class="st0" d="M238.3,38.49V22.28c0-6.3-0.06-10.86-0.34-15.65l0.17-0.06c1.86,4.11,4.39,8.44,7.03,12.66l12.03,19.25      h4.95V0.56h-4.61v15.92c0,5.85,0.11,10.47,0.56,15.53l-0.17,0.05c-1.74-3.88-3.99-7.88-6.75-12.32L239.09,0.56h-5.4v37.93H238.3      z"></path>
				<path class="st0" d="M237.98,7.19c0,0-0.02-0.26,0.03-0.38c0.04-0.08,0.16-0.13,0.3,0.16l0.01-0.13l-0.23-0.6l-0.22-0.05      l-0.04,0.58L237.98,7.19z"></path>
				<path class="st0" d="M258.04,31.39c0,0,0.02,0.26-0.03,0.37c-0.04,0.09-0.15,0.13-0.29-0.16l-0.01,0.13l0.23,0.6l0.22,0.04      l0.04-0.58L258.04,31.39z"></path>
			</g>
		</g>
		<g>
			<path class="st0" d="M0,0.62h15.16c9.01,0,11.93,4.93,11.93,9.81c0,4.09-2.97,7.53-7.37,8.06l0.11,0.11     c1.01-0.16,8.53,1.64,8.53,9.28c0,6.9-5.3,10.61-13.2,10.61H0V0.62z M2.33,17.81h12.83c6.31,0,9.6-3.18,9.6-7.8     c0-5.46-4.56-7.37-9.6-7.37H2.33V17.81z M2.33,36.49h12.83c6.68,0,10.87-2.97,10.87-8.59c0-6.47-5.88-8.06-10.87-8.06H2.33V36.49     z"></path>
			<path class="st0" d="M46.12,0.62L61.07,38.5h-2.49l-4.77-12.15H35.68L30.85,38.5h-2.49L43.58,0.62H46.12z M53.07,24.34     L44.95,2.91h-0.11l-8.43,21.43H53.07z"></path>
			<path class="st0" d="M62.71,0.62h2.92l23.91,34.75h0.11V0.62h2.33V38.5h-2.76L65.15,3.49h-0.11V38.5h-2.33V0.62z"></path>
			<path class="st0" d="M124.4,12.27c-0.96-6.08-6.28-9.73-12.31-9.73c-9.47,0-14.99,7.76-14.99,17.03     c0,9.28,5.52,17.03,14.99,17.03c7.04,0,12.51-6.29,12.92-13.03h2.23c-0.81,8.62-7.19,14.95-15.15,14.95     c-10.84,0-17.22-8.36-17.22-18.96c0-10.59,6.38-18.96,17.22-18.96c12.82,0,14.49,11.15,14.54,11.66H124.4z"></path>
			<path class="st0" d="M146.49,38.53c-10.84,0-17.22-8.36-17.22-18.96c0-10.59,6.38-18.96,17.22-18.96     c10.79,0,17.17,8.36,17.17,18.96C163.66,30.17,157.28,38.53,146.49,38.53z M146.49,36.61c9.42,0,14.94-7.76,14.94-17.03     c0-9.28-5.52-17.03-14.94-17.03c-9.47,0-14.99,7.76-14.99,17.03C131.49,28.85,137.02,36.61,146.49,36.61z"></path>
		</g>
	</g>
</g>
</svg>