<svg width="263" height="56" viewBox="0 0 263 56" fill="none" xmlns="http://www.w3.org/2000/svg">
<g clip-path="url(#clip0_20_2)">
<path d="M5.93 50L5.45 50.37C5.19 50.03 4.87 49.77 4.5 49.59C4.13 49.41 3.72 49.32 3.28 49.32C2.8 49.32 2.35 49.44 1.94 49.67C1.53 49.9 1.21 50.22 0.98 50.61C0.75 51 0.64 51.44 0.64 51.93C0.64 52.67 0.89 53.29 1.4 53.78C1.91 54.28 2.55 54.52 3.32 54.52C4.17 54.52 4.88 54.19 5.45 53.52L5.93 53.88C5.63 54.27 5.25 54.56 4.8 54.77C4.35 54.98 3.84 55.09 3.29 55.09C2.23 55.09 1.39 54.74 0.78 54.03C0.26 53.44 0 52.72 0 51.87C0 50.98 0.31 50.23 0.93 49.63C1.55 49.02 2.33 48.72 3.27 48.72C3.84 48.72 4.35 48.83 4.8 49.06C5.26 49.28 5.64 49.6 5.93 50Z" fill="white"/>
<path d="M11.69 48.88H12.9C13.57 48.88 14.03 48.91 14.27 48.96C14.63 49.04 14.92 49.22 15.15 49.49C15.38 49.76 15.49 50.09 15.49 50.49C15.49 50.82 15.41 51.11 15.26 51.36C15.1 51.61 14.88 51.8 14.59 51.93C14.3 52.06 13.9 52.12 13.39 52.13L15.57 54.95H14.82L12.64 52.13H12.3V54.95H11.69V48.88ZM12.3 49.47V51.53L13.34 51.54C13.74 51.54 14.04 51.5 14.24 51.42C14.43 51.34 14.58 51.22 14.69 51.05C14.8 50.88 14.85 50.69 14.85 50.48C14.85 50.28 14.79 50.09 14.69 49.92C14.58 49.75 14.44 49.63 14.26 49.56C14.08 49.49 13.78 49.45 13.37 49.45H12.3V49.47Z" fill="white"/>
<path d="M21.3 48.88H24.77V49.47H21.9V51.37H24.74V51.96H21.9V54.34H24.74V54.93H21.3V48.88ZM23.35 47.13H24.24L23.02 48.4H22.45L23.35 47.13Z" fill="white"/>
<path d="M30.34 54.94V48.87H31.6C32.51 48.87 33.16 48.94 33.57 49.09C34.16 49.3 34.62 49.65 34.95 50.16C35.28 50.67 35.45 51.28 35.45 51.98C35.45 52.59 35.32 53.12 35.06 53.58C34.8 54.04 34.46 54.38 34.04 54.6C33.62 54.82 33.03 54.93 32.28 54.93H30.34V54.94ZM30.92 54.37H31.62C32.46 54.37 33.04 54.32 33.36 54.21C33.82 54.06 34.17 53.79 34.44 53.41C34.7 53.02 34.83 52.55 34.83 51.99C34.83 51.4 34.69 50.9 34.41 50.49C34.13 50.08 33.73 49.79 33.23 49.64C32.85 49.52 32.23 49.47 31.35 49.47H30.92V54.37Z" fill="white"/>
<path d="M41.05 48.88H41.66V54.95H41.05V48.88Z" fill="white"/>
<path d="M46.96 49.47V48.88H50.28V49.47H48.93V54.94H48.31V49.47H46.96Z" fill="white"/>
<path d="M58.56 48.72C59.48 48.72 60.25 49.03 60.87 49.64C61.49 50.25 61.8 51.01 61.8 51.9C61.8 52.79 61.49 53.54 60.87 54.16C60.25 54.78 59.5 55.09 58.61 55.09C57.71 55.09 56.95 54.78 56.33 54.17C55.71 53.55 55.4 52.81 55.4 51.94C55.4 51.36 55.54 50.82 55.82 50.32C56.1 49.82 56.49 49.43 56.97 49.15C57.46 48.86 57.99 48.72 58.56 48.72ZM58.58 49.31C58.13 49.31 57.71 49.43 57.3 49.66C56.9 49.89 56.58 50.21 56.36 50.61C56.13 51.01 56.02 51.45 56.02 51.93C56.02 52.65 56.27 53.26 56.77 53.76C57.27 54.26 57.87 54.51 58.58 54.51C59.05 54.51 59.49 54.4 59.89 54.17C60.29 53.94 60.6 53.63 60.83 53.23C61.05 52.83 61.17 52.39 61.17 51.91C61.17 51.43 61.06 50.99 60.83 50.6C60.61 50.21 60.29 49.9 59.88 49.67C59.47 49.43 59.04 49.31 58.58 49.31Z" fill="white"/>
<path d="M74.36 48.88H74.97V51.42H78.06V48.88H78.67V54.95H78.06V52.02H74.97V54.95H74.36V48.88Z" fill="white"/>
<path d="M84.57 48.88H85.18V54.95H84.57V48.88Z" fill="white"/>
<path d="M91.07 48.88H92.28C92.97 48.88 93.44 48.91 93.68 48.97C94.03 49.06 94.31 49.23 94.53 49.5C94.75 49.77 94.86 50.1 94.86 50.5C94.86 50.9 94.75 51.24 94.54 51.5C94.33 51.76 94.03 51.94 93.65 52.03C93.38 52.1 92.86 52.13 92.11 52.13H91.68V54.95H91.07V48.88ZM91.68 49.47V51.53L92.71 51.54C93.12 51.54 93.43 51.5 93.62 51.43C93.81 51.35 93.96 51.23 94.07 51.06C94.18 50.89 94.23 50.7 94.23 50.49C94.23 50.29 94.18 50.1 94.07 49.93C93.96 49.76 93.82 49.64 93.63 49.57C93.45 49.5 93.16 49.46 92.75 49.46H91.68V49.47Z" fill="white"/>
<path d="M103.48 48.72C104.4 48.72 105.17 49.03 105.79 49.64C106.41 50.25 106.72 51.01 106.72 51.9C106.72 52.79 106.41 53.54 105.79 54.16C105.17 54.78 104.42 55.09 103.53 55.09C102.63 55.09 101.87 54.78 101.25 54.17C100.63 53.55 100.32 52.81 100.32 51.94C100.32 51.36 100.46 50.82 100.74 50.32C101.02 49.82 101.41 49.43 101.89 49.15C102.38 48.86 102.91 48.72 103.48 48.72ZM103.5 49.31C103.05 49.31 102.63 49.43 102.22 49.66C101.82 49.89 101.51 50.21 101.28 50.61C101.05 51.01 100.94 51.45 100.94 51.93C100.94 52.65 101.19 53.26 101.69 53.76C102.19 54.26 102.79 54.51 103.5 54.51C103.97 54.51 104.41 54.4 104.81 54.17C105.21 53.94 105.52 53.63 105.75 53.23C105.97 52.83 106.09 52.39 106.09 51.91C106.09 51.43 105.98 50.99 105.75 50.6C105.53 50.21 105.21 49.9 104.8 49.67C104.39 49.43 103.96 49.31 103.5 49.31Z" fill="white"/>
<path d="M111.84 49.47V48.88H115.16V49.47H113.81V54.94H113.19V49.47H111.84Z" fill="white"/>
<path d="M120.56 48.88H124.03V49.47H121.16V51.37H124V51.96H121.16V54.34H124V54.93H120.55V48.88H120.56Z" fill="white"/>
<path d="M135.24 50L134.76 50.37C134.5 50.03 134.18 49.77 133.81 49.59C133.44 49.41 133.03 49.32 132.59 49.32C132.11 49.32 131.66 49.44 131.25 49.67C130.84 49.9 130.52 50.22 130.29 50.61C130.06 51 129.95 51.44 129.95 51.93C129.95 52.67 130.2 53.29 130.71 53.78C131.22 54.28 131.86 54.52 132.63 54.52C133.48 54.52 134.19 54.19 134.76 53.52L135.24 53.88C134.94 54.27 134.56 54.56 134.11 54.77C133.66 54.98 133.15 55.09 132.6 55.09C131.54 55.09 130.7 54.74 130.09 54.03C129.58 53.43 129.32 52.71 129.32 51.87C129.32 50.98 129.63 50.23 130.25 49.63C130.87 49.02 131.65 48.72 132.59 48.72C133.16 48.72 133.67 48.83 134.12 49.06C134.57 49.28 134.95 49.6 135.24 50Z" fill="white"/>
<path d="M143.45 48.88L146.28 54.95H145.63L144.68 52.95H142.07L141.13 54.95H140.45L143.31 48.88H143.45ZM143.37 50.17L142.33 52.37H144.4L143.37 50.17Z" fill="white"/>
<path d="M151.76 48.88H152.97C153.64 48.88 154.1 48.91 154.34 48.96C154.7 49.04 154.99 49.22 155.22 49.49C155.45 49.76 155.56 50.09 155.56 50.49C155.56 50.82 155.48 51.11 155.33 51.36C155.17 51.61 154.95 51.8 154.66 51.93C154.37 52.06 153.97 52.12 153.46 52.13L155.64 54.95H154.89L152.71 52.13H152.37V54.95H151.76V48.88ZM152.37 49.47V51.53L153.41 51.54C153.81 51.54 154.11 51.5 154.31 51.42C154.5 51.34 154.66 51.22 154.76 51.05C154.87 50.88 154.92 50.69 154.92 50.48C154.92 50.28 154.86 50.09 154.75 49.92C154.64 49.75 154.5 49.63 154.32 49.56C154.14 49.49 153.84 49.45 153.43 49.45H152.37V49.47Z" fill="white"/>
<path d="M161.28 48.88H161.89V54.95H161.28V48.88Z" fill="white"/>
<path d="M170.68 48.72C171.6 48.72 172.37 49.03 172.99 49.64C173.61 50.25 173.92 51.01 173.92 51.9C173.92 52.79 173.61 53.54 172.99 54.16C172.37 54.78 171.62 55.09 170.73 55.09C169.83 55.09 169.07 54.78 168.45 54.17C167.83 53.55 167.52 52.81 167.52 51.94C167.52 51.36 167.66 50.82 167.94 50.32C168.22 49.82 168.61 49.43 169.09 49.15C169.59 48.86 170.11 48.72 170.68 48.72ZM170.71 49.31C170.26 49.31 169.84 49.43 169.43 49.66C169.03 49.89 168.71 50.21 168.49 50.61C168.26 51.01 168.15 51.45 168.15 51.93C168.15 52.65 168.4 53.26 168.9 53.76C169.4 54.26 170 54.51 170.71 54.51C171.18 54.51 171.62 54.4 172.02 54.17C172.42 53.94 172.73 53.63 172.96 53.23C173.18 52.83 173.3 52.39 173.3 51.91C173.3 51.43 173.19 50.99 172.96 50.6C172.74 50.21 172.42 49.9 172.01 49.67C171.6 49.43 171.16 49.31 170.71 49.31Z" fill="white"/>
<path d="M186.5 54.94V48.87H186.63L190.66 53.52V48.87H191.26V54.94H191.12L187.12 50.35V54.94H186.5Z" fill="white"/>
<path d="M199.73 48.88L202.56 54.95H201.91L200.96 52.95H198.35L197.41 54.95H196.73L199.59 48.88H199.73ZM199.66 50.17L198.62 52.37H200.69L199.66 50.17Z" fill="white"/>
<path d="M213.66 50L213.18 50.37C212.92 50.03 212.6 49.77 212.23 49.59C211.86 49.41 211.45 49.32 211.01 49.32C210.53 49.32 210.08 49.44 209.67 49.67C209.26 49.9 208.94 50.22 208.71 50.61C208.48 51 208.37 51.44 208.37 51.93C208.37 52.67 208.62 53.29 209.13 53.78C209.64 54.28 210.28 54.52 211.05 54.52C211.9 54.52 212.61 54.19 213.18 53.52L213.66 53.88C213.36 54.27 212.98 54.56 212.53 54.77C212.08 54.98 211.57 55.09 211.02 55.09C209.96 55.09 209.12 54.74 208.51 54.03C208 53.43 207.74 52.71 207.74 51.87C207.74 50.98 208.05 50.23 208.67 49.63C209.29 49.02 210.07 48.72 211.01 48.72C211.58 48.72 212.09 48.83 212.54 49.06C213 49.28 213.37 49.6 213.66 50Z" fill="white"/>
<path d="M219.31 48.88H219.92V54.95H219.31V48.88Z" fill="white"/>
<path d="M228.71 48.72C229.63 48.72 230.4 49.03 231.02 49.64C231.64 50.25 231.95 51.01 231.95 51.9C231.95 52.79 231.64 53.54 231.02 54.16C230.4 54.78 229.65 55.09 228.76 55.09C227.86 55.09 227.1 54.78 226.48 54.17C225.86 53.55 225.55 52.81 225.55 51.94C225.55 51.36 225.69 50.82 225.97 50.32C226.25 49.82 226.64 49.43 227.12 49.15C227.61 48.86 228.14 48.72 228.71 48.72ZM228.73 49.31C228.28 49.31 227.86 49.43 227.45 49.66C227.05 49.89 226.73 50.21 226.51 50.61C226.28 51.01 226.17 51.45 226.17 51.93C226.17 52.65 226.42 53.26 226.92 53.76C227.42 54.26 228.02 54.51 228.73 54.51C229.2 54.51 229.64 54.4 230.04 54.17C230.44 53.94 230.75 53.63 230.98 53.23C231.2 52.83 231.32 52.39 231.32 51.91C231.32 51.43 231.21 50.99 230.98 50.6C230.76 50.21 230.44 49.9 230.03 49.67C229.62 49.43 229.19 49.31 228.73 49.31Z" fill="white"/>
<path d="M237.67 54.94V48.87H237.8L241.83 53.52V48.87H242.43V54.94H242.29L238.29 50.35V54.94H237.67Z" fill="white"/>
<path d="M250.91 48.88L253.74 54.95H253.09L252.14 52.95H249.53L248.59 54.95H247.91L250.77 48.88H250.91ZM250.83 50.17L249.79 52.37H251.86L250.83 50.17Z" fill="white"/>
<path d="M259.19 48.88H259.8V54.36H262.13V54.95H259.19V48.88Z" fill="white"/>
<path d="M198.44 33.31C196.47 34.27 193.43 34.89 190.39 34.89C181.23 34.89 175.88 28.98 175.88 19.69C175.88 9.78999 181.78 4.09999 190.67 4.09999C193.82 4.09999 196.46 4.77999 198.26 5.66999L199.5 1.61999C198.21 0.99999 195.17 -0.0100098 190.5 -0.0100098C178.75 -0.0100098 170.7 7.97999 170.7 19.85C170.7 32.29 178.68 39.04 189.37 39.04C193.98 39.04 197.64 38.14 199.38 37.24L198.44 33.31Z" fill="white"/>
<path d="M206.74 0.559998H201.79V38.49H206.74V0.559998Z" fill="white"/>
<path d="M210.14 20.71H225.07V38.49H230.02V0.559998H225.07V16.43H210.14V20.71Z" fill="white"/>
<path d="M225.48 17.06L225.07 14.67C225.07 15.64 224.28 16.43 223.31 16.43L225.48 17.06Z" fill="white"/>
<path d="M225.44 20.31L225.07 22.46C225.07 21.49 224.28 20.7 223.31 20.7L225.44 20.31Z" fill="white"/>
<path d="M238.3 38.49V22.28C238.3 15.98 238.24 11.42 237.96 6.63L238.13 6.57C239.99 10.68 242.52 15.01 245.16 19.23L257.19 38.48H262.14V0.559998H257.53V16.48C257.53 22.33 257.64 26.95 258.09 32.01L257.92 32.06C256.18 28.18 253.93 24.18 251.17 19.74L239.09 0.559998H233.69V38.49H238.3Z" fill="white"/>
<path d="M237.98 7.19C237.98 7.19 237.96 6.93 238.01 6.81C238.05 6.73 238.17 6.68 238.31 6.97L238.32 6.84L238.09 6.24L237.87 6.19L237.83 6.77L237.98 7.19Z" fill="white"/>
<path d="M258.04 31.39C258.04 31.39 258.06 31.65 258.01 31.76C257.97 31.85 257.86 31.89 257.72 31.6L257.71 31.73L257.94 32.33L258.16 32.37L258.2 31.79L258.04 31.39Z" fill="white"/>
<path d="M0 0.619995H15.16C24.17 0.619995 27.09 5.55 27.09 10.43C27.09 14.52 24.12 17.96 19.72 18.49L19.83 18.6C20.84 18.44 28.36 20.24 28.36 27.88C28.36 34.78 23.06 38.49 15.16 38.49H0V0.619995ZM2.33 17.81H15.16C21.47 17.81 24.76 14.63 24.76 10.01C24.76 4.55 20.2 2.64 15.16 2.64H2.33V17.81ZM2.33 36.49H15.16C21.84 36.49 26.03 33.52 26.03 27.9C26.03 21.43 20.15 19.84 15.16 19.84H2.33V36.49Z" fill="white"/>
<path d="M46.12 0.619995L61.07 38.5H58.58L53.81 26.35H35.68L30.85 38.5H28.36L43.58 0.619995H46.12ZM53.07 24.34L44.95 2.91H44.84L36.41 24.34H53.07Z" fill="white"/>
<path d="M62.71 0.619995H65.63L89.54 35.37H89.65V0.619995H91.98V38.5H89.22L65.15 3.49H65.04V38.5H62.71V0.619995Z" fill="white"/>
<path d="M124.4 12.27C123.44 6.18998 118.12 2.53998 112.09 2.53998C102.62 2.53998 97.1 10.3 97.1 19.57C97.1 28.85 102.62 36.6 112.09 36.6C119.13 36.6 124.6 30.31 125.01 23.57H127.24C126.43 32.19 120.05 38.52 112.09 38.52C101.25 38.52 94.87 30.16 94.87 19.56C94.87 8.96997 101.25 0.599976 112.09 0.599976C124.91 0.599976 126.58 11.75 126.63 12.26H124.4V12.27Z" fill="white"/>
<path d="M146.49 38.53C135.65 38.53 129.27 30.17 129.27 19.57C129.27 8.97998 135.65 0.609985 146.49 0.609985C157.28 0.609985 163.66 8.96998 163.66 19.57C163.66 30.17 157.28 38.53 146.49 38.53ZM146.49 36.61C155.91 36.61 161.43 28.85 161.43 19.58C161.43 10.3 155.91 2.54999 146.49 2.54999C137.02 2.54999 131.5 10.31 131.5 19.58C131.49 28.85 137.02 36.61 146.49 36.61Z" fill="white"/>
</g>
<defs>
<clipPath id="clip0_20_2">
<rect width="262.15" height="55.1" fill="white"/>
</clipPath>
</defs>
</svg>
